<?xml version="1.0" encoding="iso-8859-1"?>
<!-- Uploaded to: SVG Repo, www.svgrepo.com, Generator: SVG Repo Mixer Tools -->
<svg fill="#000000" height="800px" width="800px" version="1.1" id="Layer_1" xmlns="http://www.w3.org/2000/svg" xmlns:xlink="http://www.w3.org/1999/xlink" 
	 viewBox="0 0 512.002 512.002" xml:space="preserve">
<g>
	<g>
		<path d="M511.556,449.552c-1.033-3.072-3.712-5.299-6.921-5.734L307.2,416.579V394.58l160.896,23.467
			c3.337,0.452,6.75-1.092,8.533-4.028c1.775-2.935,1.621-6.647-0.384-9.421l-14.95-20.608
			C390.238,286.096,354.406,236.722,307.2,126.25V95.743l75.128,15.027c3.849,0.768,7.74-1.195,9.412-4.762
			c1.664-3.567,0.674-7.808-2.406-10.266L304,27.476c-2.56-2.057-6.084-2.449-9.028-1.033c-2.961,1.417-4.838,4.412-4.838,7.689
			v28.655c-79.855,37.248-184.132,116.634-238.515,284.45c-0.777,2.389-0.461,5.001,0.87,7.134c1.323,2.133,3.533,3.576,6.016,3.942
			l231.629,33.775v22.135L9.702,375.542c-2.475-0.341-4.915,0.401-6.775,2.022C1.067,379.186,0,381.533,0,383.999
			c0,56.465,45.935,102.4,102.4,102.4h375.467c2.261,0,4.437-0.896,6.033-2.5l25.6-25.6
			C511.795,456.003,512.589,452.615,511.556,449.552z M290.133,354.977c-28.484-60.39-14.285-157.995,0-221.602V354.977z"/>
	</g>
</g>
</svg>